<svg width="108" height="32" viewBox="0 0 108 32" fill="none" xmlns="http://www.w3.org/2000/svg">
<path fill-rule="evenodd" clip-rule="evenodd" d="M21.81 0.0190001L14.6764 20.5458H19.4624L21.0457 15.6997H27.5697L29.1528 20.5458H33.939L26.9601 0.0190001H21.81ZM21.9374 12.4568C23.5207 7.39875 24.2213 4.89274 24.2577 4.64397C24.3486 4.89274 25.0765 7.38951 26.6961 12.4568H21.9374Z" fill="#470BBE"/>
<path fill-rule="evenodd" clip-rule="evenodd" d="M14.6721 0.0187406H0V3.6027H5.06811V20.5455H9.60853V3.6027H14.6766L14.6721 0.0187406Z" fill="#470BBE"/>
<path fill-rule="evenodd" clip-rule="evenodd" d="M59.7262 0.0190001H55.1856V20.5458H67.2295L67.2178 16.9619H59.7262V0.0190001Z" fill="#470BBE"/>
<path fill-rule="evenodd" clip-rule="evenodd" d="M103.436 0.0190001V12.1526C103.436 12.1526 102.007 10.2087 94.7826 0.0190001H90.8155V20.5458H95.3923V8.20022L104.109 20.5458H107.949V0.0190001H103.436Z" fill="#470BBE"/>
<path fill-rule="evenodd" clip-rule="evenodd" d="M5.06823 25.0799V31.8485H5.57507V28.8668H6.78967C7.36638 28.8668 7.79462 28.743 8.11783 28.5926C8.72956 28.3094 9.11404 27.6901 9.11404 26.9203C9.11404 26.1858 8.86942 25.7168 8.48495 25.4426C8.07419 25.1596 7.55868 25.0799 6.90329 25.0799H5.06823ZM6.77219 28.3979H5.56627V25.5399H6.88575C7.93434 25.5399 8.56349 25.8939 8.56349 26.9203C8.56349 27.3716 8.38006 27.8228 8.0479 28.0706C7.75084 28.3005 7.22658 28.3979 6.77219 28.3979ZM20.8571 25.0799L18.288 31.8485H18.8298L19.6862 29.5658H22.5525L23.4175 31.8485H23.968L21.3989 25.0799H20.8571ZM22.3864 29.1235H19.8521C20.7872 26.5929 21.058 25.8232 21.1018 25.6904C21.1455 25.8232 21.4426 26.5839 22.3864 29.1235ZM35.6238 31.8485H36.1392V29.1589L38.6122 25.0799H38.0181C36.6373 27.3095 36.3227 27.8492 35.8772 28.6279C35.4315 27.8405 35.0995 27.3007 33.745 25.0799H33.142L35.6238 29.1677V31.8485ZM47.7863 25.0799V31.8485H48.293V25.9203C48.293 25.9203 48.6251 26.4602 50.5912 29.38H50.6438C52.5924 26.5045 52.9331 25.9203 52.9331 25.9203V31.8485H53.4488V25.0799H52.9331L50.635 28.5484L48.3105 25.0799H47.7863ZM62.6227 25.0799V31.8485H66.2318V31.3974H63.1384V28.6013H65.7948V28.1325H63.1384V25.5488H66.0221L66.1006 25.0799H62.6227ZM75.4058 25.0799V31.8485H75.9213V26.0532C75.9213 26.0532 76.3059 26.6017 80.3693 31.8485H80.6838V25.0799H80.1769V30.7781C80.1769 30.7781 79.7488 30.1674 75.7991 25.0799H75.4058ZM91.9463 25.5399V31.8485H92.4618V25.5399H94.5242L94.6027 25.0799H89.8578V25.5399H91.9463ZM105.778 31.9725C106.853 31.9725 107.928 31.4858 107.928 30.079C107.928 29.0702 107.377 28.6457 106.416 28.274L105.839 28.0528C105.123 27.7786 104.537 27.4689 104.537 26.6283C104.537 25.7876 105.149 25.4073 106.083 25.4073C106.73 25.4073 107.219 25.593 107.613 25.8674L107.691 25.3276C107.376 25.1683 106.748 24.9649 106.032 24.9649C104.773 24.9649 104.022 25.6373 104.022 26.646C104.022 27.7519 104.677 28.0883 105.621 28.4776L106.136 28.6811C107.027 29.0438 107.412 29.4154 107.412 30.0967C107.412 31.1054 106.721 31.5302 105.812 31.5302C104.904 31.5302 104.336 31.2735 103.882 30.9108L103.777 31.4771C104.196 31.7335 104.887 31.9725 105.778 31.9725Z" fill="#470BBE"/>
<path fill-rule="evenodd" clip-rule="evenodd" d="M50.0679 14.1882C49.7312 13.4511 49.2126 12.5483 48.6941 11.9955C48.0844 11.3782 47.593 11.1018 46.956 10.9175C47.6294 10.7978 48.4847 10.42 48.9032 10.0883C50.0588 9.2868 51.0415 7.98772 51.0415 5.83195C51.0415 3.33518 49.9406 1.72288 48.3573 0.893696C47.1108 0.156614 45.1273 0 43.0253 0L36.0738 0.0276421V3.49179L36.0828 3.50097L36.1192 3.51937L36.1465 3.5286L36.183 3.53785L36.2194 3.54701L36.2739 3.55624H36.374L36.4286 3.5286L36.5197 3.47333L36.7926 3.28908L37.0019 3.15086L37.1838 3.02189L37.3384 2.91132L37.5205 2.79153L37.7024 2.66255L37.9026 2.52435L38.0664 2.41384L38.2302 2.31251L38.394 2.20196L38.5576 2.10055L38.7215 1.99923L38.9218 1.87949L39.122 1.77816L39.2675 1.71364L39.4494 1.63988L39.6315 1.57543L39.8317 1.52015L40.0682 1.46487L40.3138 1.40965L40.596 1.36354L40.8688 1.32666L41.1509 1.29908L41.4331 1.28985H42.1154L42.252 1.29908L42.3702 1.30825L42.5158 1.31749L42.716 1.33589L42.9252 1.36354L43.0071 1.37271L43.2984 1.42805L43.453 1.45569L43.5895 1.48327L43.7533 1.52015L43.8625 1.54779C43.8625 1.54779 43.9079 1.55703 43.9444 1.56626C43.9715 1.57543 43.9808 1.58466 43.9808 1.58466C43.9808 1.58466 43.9808 1.56626 43.9898 1.54779C43.9989 1.51092 44.0535 1.382 44.1626 1.18852C44.2719 0.995022 44.4538 0.847585 44.4538 0.847585L44.5359 0.7923L44.6176 0.746251L44.7178 0.700207L44.8542 0.654158L44.827 0.755424L44.8087 0.829177L44.7906 0.902869L44.7723 0.995023L44.7542 1.06872L44.736 1.17004C44.736 1.17004 44.7269 1.24373 44.7269 1.25297L44.7087 1.45569L44.6995 1.54779L44.6905 1.69523V1.8979L44.6995 1.97158L44.7178 2.08215L44.7269 2.16507L44.736 2.22959L44.7633 2.34932L44.7814 2.3862L44.7997 2.44149L44.8177 2.49677L44.9089 2.68102L44.9543 2.75471L45.1181 3.08641L45.1818 3.20615L45.2183 3.27066L45.2637 3.34436L45.3092 3.42728L45.3729 3.54701L45.4185 3.62076L45.4638 3.70369L45.5184 3.81426L45.5822 3.934L45.6367 4.02609L45.7095 4.15513L45.7551 4.25645L45.8551 4.45918L45.9007 4.55128L45.937 4.62496L45.9826 4.72635L46.0189 4.81845L46.0553 4.91055L46.0826 4.97506L46.1098 5.04876L46.1281 5.12251L46.1462 5.1962L46.1645 5.26989L46.1737 5.33434V5.46338L46.1645 5.50025L46.1462 5.59236L46.1281 5.65687L46.1098 5.71208L46.0918 5.7766L46.0826 5.81348L46.0735 5.85953L46.0645 5.8964L46.0462 5.94245L46.0099 6.03461L45.9916 6.06219L45.9826 6.08066L45.9643 6.1083L45.937 6.13594L45.8824 6.17275L45.8551 6.19122L45.8097 6.20964L45.7641 6.21881H45.6732L45.6004 6.20964L45.5457 6.19122L45.4912 6.17275L45.4185 6.14518L45.3729 6.12671L45.291 6.08066L45.1454 5.98856L45.0454 5.91481L44.9543 5.84113L44.8633 5.7582L44.7269 5.61999L44.6359 5.51866L44.5995 5.47254H44.5632L44.472 5.49101H44.2265L44.0627 5.47254L43.9989 5.46338L43.9171 5.44491L43.8625 5.4265L43.7987 5.40809L43.7078 5.37128L43.6441 5.34364L43.5985 5.31593L43.544 5.2883L43.4894 5.26072L43.4349 5.22385L43.3711 5.17773L43.3075 5.12251L43.1982 5.01195L43.1436 4.94743L43.08 4.8645L43.0161 4.76318L42.9617 4.67102L42.9252 4.68025L42.8525 4.70789L42.7978 4.72635L42.7433 4.75394L42.6432 4.80005L42.5612 4.83686L42.4795 4.88297L42.4157 4.91979L42.3429 4.95666L42.252 5.01195L42.1791 5.05799L41.988 5.18696L41.9153 5.23308L41.8243 5.29753L41.7606 5.34364L41.6514 5.43573L41.5968 5.49101L41.5421 5.53707L41.4239 5.65687L41.3603 5.73056L41.2692 5.84113L41.2147 5.91481L41.1692 5.97933L41.1145 6.07143L41.0599 6.17275L41.0145 6.26491L40.9962 6.3202L40.969 6.40312L40.9326 6.52286L40.9053 6.60578L40.8781 6.70712L40.8507 6.79927L40.8234 6.9006L40.8051 6.98353L40.7961 7.06645L40.7871 7.14014V7.29676L40.7961 7.36127L40.8143 7.42579L40.8325 7.48114L40.8507 7.52705L40.8688 7.5547L40.8961 7.60081L40.9417 7.65609L40.969 7.6838L40.9962 7.7022L41.0236 7.72054L41.0599 7.73895L41.1055 7.76666L41.1692 7.7943L41.2692 7.83111L41.3056 7.84042L41.3694 7.85882L41.4239 7.87721L41.5058 7.89569L41.6514 7.93244L41.7696 7.96008L41.8788 7.98772L41.9608 8.0062L41.9971 8.01537L42.0519 8.02466L42.0973 8.03384L42.1609 8.05224L42.2065 8.07072C42.2065 8.07072 42.2247 8.07995 42.2428 8.07995C42.261 8.08913 42.3793 8.1351 42.3793 8.1351L42.4703 8.18121L42.5341 8.2181L42.5612 8.24574L42.6068 8.28261L42.6341 8.31026L42.6705 8.35623L42.6978 8.40235L42.707 8.42999L42.725 8.4761L42.7343 8.50374L42.7523 8.57736V8.70646L42.7433 8.74328L42.7343 8.79849L42.716 8.86302L42.6978 8.92754L42.6796 8.98276L42.6432 9.06574C42.6432 9.06574 42.5977 9.14867 42.5704 9.18554C42.5431 9.22229 42.5068 9.2684 42.4885 9.29605C42.4703 9.32369 42.3793 9.42502 42.3429 9.46183C42.3066 9.4987 42.252 9.54482 42.252 9.54482L42.1701 9.61844L42.079 9.69219L41.9244 9.82123L41.8152 9.91333L41.6877 10.0147L41.2784 10.3463L41.0782 10.5029L40.8961 10.6504L40.6506 10.8439L40.3775 11.065L40.0864 11.2861L39.5586 11.6915L39.404 11.8112L39.3039 11.8942L39.2312 11.9494L39.1764 11.977L39.0491 12.0231L38.8126 12.0968L38.4849 12.1889L38.1392 12.2719L37.5569 12.4101L37.0382 12.5207C37.0382 12.5207 36.7379 12.5759 36.6834 12.585C36.6379 12.5943 36.6379 12.585 36.6288 12.576C36.6196 12.5668 36.6288 12.5299 36.6288 12.5207C36.6288 12.5114 36.656 12.4284 36.656 12.4284L36.6925 12.318L36.747 12.1982L36.8654 11.9585L36.9654 11.7743L37.0473 11.6361L37.1383 11.5072L37.1928 11.4427L37.2292 11.4151L37.2567 11.3966H37.3749L37.6842 11.4151L38.0027 11.4427L38.1483 11.4519H38.4486L38.5576 11.4427C38.5576 11.4427 38.6306 11.4335 38.6488 11.4242C38.6671 11.4242 38.6942 11.4058 38.6942 11.4058L38.767 11.3597L38.858 11.2953L39.0037 11.1755L39.122 11.0742L39.3131 10.899L39.5222 10.6964L39.9136 10.3002L40.1137 10.0883L40.2775 9.89485L40.3958 9.74754L40.5048 9.60009C40.5048 9.60009 40.5413 9.54482 40.5687 9.48953C40.596 9.43418 40.614 9.36056 40.614 9.35133C40.614 9.34215 40.6142 9.32369 40.596 9.30528C40.5776 9.2868 40.514 9.2684 40.4595 9.25916C40.4321 9.24993 40.2866 9.22229 40.2593 9.22229C40.232 9.21305 40.1047 9.19464 40.0591 9.19464C40.0319 9.18554 39.5222 9.13943 39.5222 9.13943L38.9945 9.09332L38.0209 9.03803L37.6114 9.0288H37.3111L37.02 9.03803C37.02 9.03803 37.011 9.03803 36.8198 9.05644C36.5561 9.07491 36.0828 10.0515 36.0828 10.0515V20.5545H40.6596V12.4653H42.0609C43.1255 12.4653 43.7714 12.6496 44.3174 13.1471C44.8633 13.6446 45.2273 14.474 45.6549 15.3673L48.0298 20.5545H52.9978L50.0679 14.1882Z" fill="#470BBE"/>
<path fill-rule="evenodd" clip-rule="evenodd" d="M76.5209 0.0190001L69.3872 20.5458H74.1732L75.7566 15.6997H82.2805L83.8637 20.5458H88.6497L81.6708 0.0190001H76.5209ZM76.6391 12.4568C78.2223 7.39875 78.9229 4.89274 78.9593 4.64397C79.0503 4.89274 79.7782 7.38951 81.3978 12.4568H76.6391Z" fill="#470BBE"/>
</svg>
